<svg width="60" height="36" viewBox="58 0 60 36" fill="none" xmlns="http://www.w3.org/2000/svg">
  <path fill-rule="evenodd" clip-rule="evenodd" d="M106.393 26.519c2.168 0 3.926 1.746 3.926 3.9s-1.758 3.9-3.926 3.9-3.926-1.746-3.926-3.9 1.758-3.9 3.926-3.9zm0 2.34c-.867 0-1.571.698-1.571 1.56 0 .861.704 1.56 1.571 1.56s1.571-.699 1.571-1.56c0-.862-.704-1.56-1.571-1.56zm-3.962-19.152c.391.122.766.28 1.122.469l-.497 2.34.897.904 2.325-.5c.188.357.345.735.465 1.129l-1.996 1.302v1.237l5.479 2.56a3.928 3.928 0 012.842-1.209c2.168 0 3.926 1.746 3.926 3.9s-1.758 3.9-3.926 3.9c-2.169 0-3.927-1.746-3.927-3.9 0-.2.016-.397.045-.59l-5.399-2.523-.731.736.496 2.342a6.47 6.47 0 01-1.12.467l-1.294-2.009H99.98l-1.502 3.412a3.877 3.877 0 011.24 2.845c0 2.154-1.758 3.9-3.926 3.9-2.169 0-3.927-1.746-3.927-3.9s1.758-3.9 3.927-3.9c.19 0 .378.014.56.04l1.468-3.33-.766-.77-2.325.5a6.55 6.55 0 01-.465-1.129l1.996-1.302v-1.277l-1.996-1.303c.12-.393.277-.77.465-1.129l2.325.501.897-.904-.497-2.34c.356-.19.731-.347 1.122-.469l1.293 2.01h1.269l1.293-2.01zm-20.905.823c.443.085.874.2 1.293.343l-.15 2.467 1.248.715 2.074-1.36c.337.29.653.605.947.94l-1.37 2.06.72 1.239 2.484-.149c.144.416.26.845.345 1.285l-2.225 1.104v1.43l2.225 1.105c-.085.44-.201.868-.345 1.284l-2.484-.148-.72 1.238 1.37 2.06c-.294.335-.61.65-.947.941l-2.075-1.36-1.246.715.149 2.467c-.419.143-.85.258-1.293.343l-1.112-2.21h-1.44l-1.112 2.21a9.568 9.568 0 01-1.293-.343l.15-2.467-1.248-.715-2.074 1.36a9.627 9.627 0 01-.947-.94l1.37-2.06-.72-1.239-2.484.148a9.41 9.41 0 01-.345-1.283l2.225-1.106v-1.43L70.27 18.07a9.41 9.41 0 01.345-1.284l2.484.149.72-1.239-1.37-2.06c.293-.335.61-.65.947-.94l2.074 1.36 1.247-.715-.149-2.467c.419-.143.85-.258 1.293-.343l1.112 2.21h1.44l1.112-2.21zm14.266 14.429c-.868 0-1.57.698-1.57 1.56 0 .862.703 1.56 1.57 1.56.867 0 1.57-.698 1.57-1.56 0-.862-.703-1.56-1.57-1.56zM78.516 0c2.168 0 3.926 1.746 3.926 3.9a3.9 3.9 0 01-.039.551l4.748 2.03.592-.594-.497-2.341c.356-.19.73-.347 1.122-.468l1.292 2.01h1.27l1.293-2.01c.39.121.766.278 1.121.468l-.497 2.34.898.904 2.325-.5c.188.358.344.736.465 1.13l-1.996 1.3V10l1.996 1.301a6.55 6.55 0 01-.465 1.13l-2.325-.5-.898.903.497 2.341c-.356.19-.73.346-1.12.468l-1.294-2.01h-1.27l-1.293 2.01a6.465 6.465 0 01-1.121-.468l.497-2.341-.897-.904-2.326.5a6.55 6.55 0 01-.465-1.129L86.051 10V8.72l-.717-.469-3.95-1.688A3.928 3.928 0 0178.516 7.8c-.55 0-1.075-.113-1.55-.316l-10.43 10.341c.376.599.594 1.306.594 2.064 0 2.154-1.758 3.9-3.927 3.9-2.168 0-3.926-1.746-3.926-3.9s1.758-3.9 3.926-3.9c.545 0 1.065.11 1.537.31L75.176 5.951a3.862 3.862 0 01-.586-2.05c0-2.155 1.757-3.9 3.926-3.9zm34.552 20.28c-.868 0-1.571.698-1.571 1.56 0 .86.703 1.56 1.571 1.56.867 0 1.57-.7 1.57-1.56 0-.862-.703-1.56-1.57-1.56zm-33.374-3.51c-1.735 0-3.141 1.396-3.141 3.12 0 1.722 1.406 3.12 3.14 3.12 1.736 0 3.142-1.398 3.142-3.12 0-1.724-1.406-3.12-3.141-3.12zm-16.49 1.56c-.868 0-1.571.698-1.571 1.56 0 .86.703 1.56 1.57 1.56.868 0 1.57-.7 1.57-1.56 0-.862-.702-1.56-1.57-1.56zm37.3-3.911c-.862 0-1.56.703-1.56 1.57 0 .868.698 1.571 1.56 1.571.861 0 1.559-.703 1.559-1.57 0-.868-.698-1.571-1.559-1.571zm-10.209-6.63c-.862 0-1.56.703-1.56 1.57 0 .868.698 1.571 1.56 1.571.861 0 1.56-.703 1.56-1.57 0-.868-.699-1.57-1.56-1.57zM102.074.39c2.168 0 3.926 1.746 3.926 3.9s-1.758 3.9-3.926 3.9-3.926-1.746-3.926-3.9 1.758-3.9 3.926-3.9zm0 2.34c-.867 0-1.57.699-1.57 1.56 0 .862.703 1.56 1.57 1.56.867 0 1.571-.698 1.571-1.56 0-.861-.704-1.56-1.571-1.56zm-23.558-.39c-.867 0-1.57.699-1.57 1.56 0 .862.703 1.56 1.57 1.56.867 0 1.57-.698 1.57-1.56 0-.861-.703-1.56-1.57-1.56z" fill="#000"/>
</svg>
